<?xml version="1.0" standalone="no"?>
<!DOCTYPE svg PUBLIC "-//W3C//DTD SVG 20010904//EN" "http://www.w3.org/TR/2001/REC-SVG-20010904/DTD/svg10.dtd">
<svg xmlns="http://www.w3.org/2000/svg" version="1.0" width="500.000000pt" height="500.000000pt" viewBox="0 0 500.000000 500.000000" preserveAspectRatio="xMidYMid meet">
<metadata>
Created by potrace 1.16, written by Peter Selinger 2001-2019
<meta name="Producer" content="Online-Convert"/></metadata>
<g transform="translate(0.000000,500.000000) scale(0.100000,-0.100000)" fill="#000000" stroke="none">
<path d="M2107 1734 c-4 -4 -7 -16 -7 -26 0 -10 -5 -18 -11 -18 -5 0 -7 -5 -4 -11 9 -14 -3 -59 -16 -59 -6 0 -7 5 -3 12 4 7 3 8 -4 4 -9 -5 -8 -12 1 -27 10 -17 9 -22 -7 -35 -11 -8 -16 -14 -10 -14 5 0 0 -7 -10 -15 -11 -8 -16 -15 -12 -15 5 0 3 -7 -4 -15 -7 -9 -20 -13 -28 -10 -12 4 -12 2 -3 -8 9 -11 4 -24 -22 -58 -19 -24 -39 -54 -46 -67 -7 -12 -17 -20 -23 -16 -7 4 -8 2 -4 -5 4 -6 2 -18 -4 -26 -6 -8 -9 -18 -6 -24 4 -5 -4 -11 -16 -14 -21 -3 -21 -4 -5 -12 15 -6 31 4 73 46 30 29 54 49 55 44 0 -6 4 0 9 13 5 12 16 22 25 22 8 0 14 3 14 8 -3 19 2 25 12 12 9 -13 10 -13 8 0 -3 30 1 41 13 34 7 -5 9 -2 5 8 -8 22 3 30 22 16 13 -10 14 -10 5 1 -13 14 -7 51 8 51 5 0 6 -5 2 -12 -5 -7 -3 -8 5 -3 9 5 10 10 2 18 -6 6 -7 16 -1 27 24 44 12 199 -13 174z m13 -90 c0 -36 -4 -63 -9 -60 -5 4 -7 -4 -3 -16 3 -14 1 -19 -6 -14 -8 5 -10 2 -6 -8 3 -9 1 -16 -5 -16 -6 0 -10 -3 -10 -7 3 -21 -2 -33 -13 -27 -6 4 -8 3 -4 -4 8 -13 -57 -98 -73 -94 -7 1 -10 -1 -7 -6 6 -11 -81 -98 -90 -90 -10 10 6 29 18 22 7 -5 8 -2 3 6 -5 9 2 22 21 38 16 13 23 21 16 17 -8 -4 -3 9 9 28 13 19 26 34 30 32 3 -2 6 1 6 8 0 19 54 97 64 92 4 -3 11 0 15 6 4 8 3 9 -4 5 -7 -4 -12 -3 -12 3 0 5 4 12 9 16 5 3 12 19 16 35 4 17 11 30 16 30 6 0 8 4 4 10 -6 9 4 60 11 60 2 0 4 -30 4 -66z"/>
</g>
</svg>
